<svg width="125" height="29" viewBox="0 0 125 29" fill="none" xmlns="http://www.w3.org/2000/svg">
<g clip-path="url(#clip0_184_2420)">
<path d="M0 19.7258C2.15979 24.7941 7.18713 28.3495 13.0461 28.3495C10.8863 23.279 5.85896 19.7258 0 19.7258Z" fill="#111111"/>
<path d="M13.0472 28.3493C17.3512 28.3493 21.0571 25.7914 22.7292 22.1144C18.4262 22.1144 14.7204 24.6723 13.0472 28.3493Z" fill="#111111"/>
<path fill-rule="evenodd" clip-rule="evenodd" d="M13.0472 21.2617C18.9183 21.2617 23.678 16.5031 23.678 10.6308C23.678 4.7608 18.9183 0 13.0472 0C7.17493 0 2.41632 4.7608 2.41632 10.6308C2.41632 16.5031 7.17493 21.2617 13.0472 21.2617ZM13.0472 15.947C15.9822 15.947 18.362 13.5671 18.362 10.631C18.362 7.6949 15.9822 5.3161 13.0472 5.3161C10.111 5.3161 7.73115 7.6949 7.73115 10.631C7.73115 13.5671 10.111 15.947 13.0472 15.947Z" fill="#111111"/>
<path d="M81.4449 10.6311H85.8916V27.8674H81.4449V21.1547H73.6805V27.8674H69.2337V10.6311H73.6805V16.9833H81.4449V10.6311ZM87.9861 14.9065H93.5222V27.8674H97.9689V14.9065H103.438V10.6311H87.9861V14.9065ZM125 24.1184V27.7822C124.242 28.1616 123.295 28.3506 122.189 28.3506C119.879 28.3506 118.716 27.3454 118.25 25.7264L118.176 25.8348C116.831 27.5235 114.97 28.3506 112.557 28.3506C110.246 28.3506 108.281 27.4892 106.627 25.7308C105.007 23.9725 104.18 21.8005 104.18 19.2493C104.18 16.7002 105.007 14.5625 106.627 12.8042C108.281 11.0469 110.246 10.149 112.557 10.149C114.863 10.149 116.665 10.9076 117.994 12.4525V10.6322H122.441V22.8246C122.441 23.8663 122.915 24.4027 123.863 24.4027C124.306 24.4016 124.685 24.3075 125 24.1184ZM118.176 19.2481C118.176 17.837 117.728 16.6648 116.797 15.7679C115.901 14.8379 114.763 14.3889 113.384 14.3889C112.005 14.3889 110.868 14.8368 109.971 15.7679C109.075 16.6648 108.627 17.837 108.627 19.2481C108.627 20.6626 109.075 21.8348 109.971 22.766C110.868 23.6617 112.005 24.1096 113.384 24.1096C114.763 24.1096 115.901 23.6617 116.797 22.766C117.728 21.8348 118.176 20.6626 118.176 19.2481ZM32.5992 10.6311L32.4665 17.1072C32.4355 19.7292 32.3404 21.0242 31.9611 22.5072C31.6138 23.9293 30.9503 24.3308 29.9097 24.3308C29.5613 24.3308 29.2461 24.2987 28.9929 24.2036V27.8674C29.3401 28.0565 29.9096 28.1505 30.6672 28.1505C33.7935 28.0565 35.3097 26.5812 36.0683 23.9282C36.6047 22.0328 36.6998 20.5796 36.7949 18.4011L36.8944 14.9053H42.4161V27.8663H46.8628V10.63H32.5992V10.6311ZM54.0157 20.4127C54.4945 23.3543 56.8268 24.3175 59.1934 24.3175C60.7615 24.3175 62.4049 23.7048 63.4157 22.7881L66.1582 25.5473C64.5204 27.3609 62.2401 28.3506 59.1237 28.3506C54.761 28.3506 49.4981 25.7751 49.4981 19.2493C49.4981 12.7246 54.5664 10.149 58.8705 10.149C64.3147 10.149 66.5674 12.7069 66.5674 15.5744C66.5685 20.2623 60.61 22.4276 54.0157 20.4127ZM61.7402 16.082C61.7402 14.745 60.4176 14.1478 58.9357 14.1478C56.672 14.1478 54.7102 15.1033 54.1141 17.5628C58.7267 18.8954 61.7402 17.9012 61.7402 16.082Z" fill="#111111"/>
</g>
<defs>
<clipPath id="clip0_184_2420">
<rect width="125" height="29" fill="white"/>
</clipPath>
</defs>
</svg>
