<svg width="32" height="32" viewBox="0 0 32 32" fill="none" xmlns="http://www.w3.org/2000/svg">
<path fill-rule="evenodd" clip-rule="evenodd" d="M24.5051 22.4241C25.0644 21.9725 25.5766 21.504 26.0403 21.0404C27.1763 19.9045 28.0473 18.7718 28.6348 17.9233C28.9291 17.4982 29.1538 17.1422 29.3065 16.8896C29.3829 16.7633 29.4413 16.6626 29.4815 16.592C29.4932 16.5715 29.5033 16.5536 29.5119 16.5382C29.5181 16.5271 29.5236 16.5173 29.5282 16.509L29.5412 16.4853L29.5451 16.4781L29.5464 16.4757L29.5469 16.4748C29.5471 16.4744 29.5473 16.4741 28.6669 15.9999L29.5473 16.4741L29.8027 15.9999L29.5473 15.5258L28.6669 15.9999C29.5473 15.5258 29.5471 15.5254 29.5469 15.5251L29.5464 15.5241L29.5451 15.5217L29.5412 15.5145L29.5282 15.4908C29.5172 15.471 29.5017 15.4432 29.4815 15.4078C29.4413 15.3372 29.3829 15.2366 29.3065 15.1102C29.1538 14.8577 28.9291 14.5016 28.6348 14.0765C28.0473 13.2281 27.1763 12.0953 26.0404 10.9595C23.7839 8.70306 20.3771 6.33325 16.0002 6.33325C13.725 6.33325 11.712 6.97358 9.98643 7.90545L11.4733 9.39229C12.8262 8.74562 14.3402 8.33325 16.0002 8.33325C19.6226 8.33325 22.5492 10.2968 24.6262 12.3737C25.657 13.4045 26.4528 14.4384 26.9904 15.215C27.2049 15.5247 27.3773 15.792 27.5062 15.9999C27.3773 16.2078 27.2049 16.4751 26.9904 16.7848C26.4528 17.5614 25.657 18.5953 24.6261 19.6261C24.1547 20.0975 23.6394 20.5631 23.0822 21.0012L24.5051 22.4241ZM19.6715 17.5905C19.883 17.103 20.0002 16.5652 20.0002 15.9999C20.0002 13.7908 18.2093 11.9999 16.0002 11.9999C15.435 11.9999 14.8971 12.1172 14.4096 12.3287L19.6715 17.5905ZM12.8226 13.57L18.4301 19.1775C17.7565 19.6934 16.9142 19.9999 16.0002 19.9999C13.7911 19.9999 12.0002 18.2091 12.0002 15.9999C12.0002 15.086 12.3067 14.2436 12.8226 13.57ZM9.68539 10.4328C8.8273 11.0242 8.05511 11.6928 7.37421 12.3737C6.34338 13.4045 5.54763 14.4384 5.00997 15.215C4.79549 15.5248 4.62311 15.7921 4.49422 16C4.62307 16.2079 4.79541 16.4752 5.00983 16.7849C5.54737 17.5615 6.34298 18.5954 7.37368 19.6262C9.45041 21.7031 12.3768 23.6666 15.9996 23.6666C18.0263 23.6666 19.8352 23.052 21.3994 22.1469L22.8561 23.6035C20.9547 24.7939 18.6558 25.6666 15.9996 25.6666C11.6223 25.6666 8.2157 23.2968 5.95941 21.0403C4.82361 19.9044 3.95272 18.7717 3.36538 17.9233C3.07112 17.4982 2.84643 17.1421 2.6938 16.8895C2.61745 16.7632 2.55901 16.6625 2.5188 16.5919C2.4987 16.5566 2.48314 16.5287 2.47217 16.5089L2.45915 16.4852L2.45523 16.478L2.45392 16.4756L2.45343 16.4747C2.45323 16.4743 2.45304 16.474 3.33354 15.9999C2.4531 15.5258 2.45328 15.5254 2.45348 15.5251L2.45398 15.5241L2.45529 15.5217L2.45921 15.5145L2.47223 15.4908C2.4832 15.471 2.49876 15.4432 2.51887 15.4078C2.55909 15.3372 2.61754 15.2366 2.69391 15.1102C2.84658 14.8577 3.07131 14.5016 3.36563 14.0765C3.95307 13.2281 4.82411 12.0953 5.96002 10.9595C6.62517 10.2943 7.39026 9.61937 8.25069 8.99814L9.68539 10.4328ZM3.33354 15.9999L2.45304 16.474L2.19778 15.9999L2.4531 15.5258L3.33354 15.9999Z" fill="#0C1200"/>
<path d="M4.66666 6.66675L26 28.0001" stroke="#0C1200" stroke-width="2"/>
</svg>
