<svg width="28" height="28" viewBox="0 0 28 28" fill="none" xmlns="http://www.w3.org/2000/svg">
<g clip-path="url(#clip0_184_2415)">
<path d="M24.2523 15.3497C24.3097 14.919 24.3384 14.4739 24.3384 14C24.3384 13.5405 24.3097 13.081 24.2379 12.6503L27.1528 10.3815C27.4112 10.1805 27.483 9.79283 27.3251 9.50565L24.5682 4.73847C24.3959 4.42257 24.0369 4.32206 23.721 4.42257L20.2892 5.80103C19.5712 5.25539 18.8102 4.79591 17.963 4.45129L17.4461 0.804111C17.3887 0.459495 17.1015 0.215393 16.7569 0.215393H11.243C10.8984 0.215393 10.6256 0.459495 10.5682 0.804111L10.0512 4.45129C9.20407 4.79591 8.42868 5.26975 7.72509 5.80103L4.2933 4.42257C3.9774 4.3077 3.61843 4.42257 3.44612 4.73847L0.703553 9.50565C0.531246 9.80719 0.588681 10.1805 0.875861 10.3815L3.79073 12.6503C3.71894 13.081 3.6615 13.5549 3.6615 14C3.6615 14.4451 3.69022 14.919 3.76201 15.3497L0.847143 17.6185C0.588681 17.8195 0.516887 18.2072 0.674835 18.4944L3.43176 23.2615C3.60407 23.5774 3.96304 23.678 4.27894 23.5774L7.71073 22.199C8.42868 22.7446 9.18971 23.2041 10.0369 23.5487L10.5538 27.1959C10.6256 27.5405 10.8984 27.7846 11.243 27.7846H16.7569C17.1015 27.7846 17.3887 27.5405 17.4318 27.1959L17.9487 23.5487C18.7959 23.2041 19.5712 22.7446 20.2748 22.199L23.7066 23.5774C24.0225 23.6923 24.3815 23.5774 24.5538 23.2615L27.3107 18.4944C27.483 18.1785 27.4112 17.8195 27.1384 17.6185L24.2523 15.3497ZM14 19.1692C11.1569 19.1692 8.83073 16.8431 8.83073 14C8.83073 11.1569 11.1569 8.83078 14 8.83078C16.843 8.83078 19.1692 11.1569 19.1692 14C19.1692 16.8431 16.843 19.1692 14 19.1692Z" fill="#111111"/>
</g>
<defs>
<clipPath id="clip0_184_2415">
<rect width="28" height="28" fill="white"/>
</clipPath>
</defs>
</svg>
